<?xml version="1.0" standalone="no"?>
<!DOCTYPE svg PUBLIC "-//W3C//DTD SVG 20010904//EN"
 "http://www.w3.org/TR/2001/REC-SVG-20010904/DTD/svg10.dtd">
<svg version="1.0" xmlns="http://www.w3.org/2000/svg"
 width="500.000000pt" height="500.000000pt" viewBox="0 0 500.000000 500.000000"
 preserveAspectRatio="xMidYMid meet">
<metadata>
Created by potrace 1.16, written by Peter Selinger 2001-2019
</metadata>
<g transform="translate(0.000000,500.000000) scale(0.100000,-0.100000)"
fill="#000000" stroke="none">
<path d="M480 4760 l0 -240 -240 0 c-233 0 -240 -1 -240 -20 0 -19 7 -20 240
-20 l240 0 0 -1990 0 -1990 -240 0 c-233 0 -240 -1 -240 -20 0 -19 7 -20 240
-20 l240 0 0 -230 c0 -223 1 -230 20 -230 19 0 20 7 20 230 l0 230 1970 0
1970 0 0 -230 c0 -223 1 -230 20 -230 19 0 20 7 20 230 l0 230 250 0 c243 0
250 1 250 20 0 19 -7 20 -250 20 l-250 0 0 1990 0 1990 250 0 c243 0 250 1
250 20 0 19 -7 20 -250 20 l-250 0 0 240 c0 233 -1 240 -20 240 -19 0 -20 -7
-20 -240 l0 -240 -1970 0 -1970 0 0 240 c0 233 -1 240 -20 240 -19 0 -20 -7
-20 -240z m3980 -2270 l0 -1990 -1970 0 -1970 0 0 1990 0 1990 1970 0 1970 0
0 -1990z"/>
<path d="M2395 4215 c-38 -8 -142 -16 -230 -20 -209 -8 -251 -17 -370 -75
-106 -52 -207 -121 -188 -127 7 -3 63 3 125 11 62 9 123 16 135 16 l23 0 0
-565 0 -565 150 0 150 0 0 68 c0 135 20 959 26 1040 l6 83 60 30 c68 34 207
120 193 118 -6 -1 -41 -7 -80 -14z"/>
<path d="M3359 3335 c-3 -2 -93 -11 -200 -18 -176 -13 -202 -17 -260 -43 -95
-42 -237 -140 -173 -120 30 9 206 26 216 20 4 -3 8 -68 8 -145 l0 -139 125 0
125 0 0 148 c0 81 3 157 6 170 5 16 29 35 83 62 42 21 85 45 96 54 20 15 20
15 -1 16 -11 0 -23 -2 -25 -5z"/>
<path d="M2126 2800 c-10 -30 -11 -220 -1 -220 6 0 11 10 11 23 0 12 1 45 2
74 l2 52 70 -74 c46 -49 72 -70 77 -62 13 19 20 217 8 217 -16 0 -42 -20 -27
-20 8 0 12 -23 12 -81 l0 -80 -57 61 c-32 34 -66 76 -75 93 -12 23 -18 28 -22
17z"/>
<path d="M2443 2795 c-18 -8 -42 -29 -53 -47 -64 -105 34 -211 137 -148 77 47
84 158 12 196 -34 17 -55 17 -96 -1z m88 -34 c36 -37 40 -94 8 -135 -52 -66
-163 6 -143 93 17 71 84 92 135 42z"/>
<path d="M3685 2796 c-40 -18 -65 -48 -74 -88 -10 -48 -3 -73 26 -102 49 -50
143 -23 178 50 43 90 -41 181 -130 140z m87 -36 c27 -28 30 -36 25 -76 -6 -56
-30 -84 -72 -84 -68 0 -112 74 -85 140 24 59 84 68 132 20z"/>
<path d="M1890 2312 c0 -340 -41 -505 -159 -634 l-48 -53 241 0 241 0 75 39
c64 33 274 176 267 182 -1 1 -42 -7 -92 -17 -63 -13 -133 -19 -233 -19 l-143
0 30 38 c34 42 67 112 88 187 10 32 17 122 20 253 l6 202 -147 0 -146 0 0
-178z"/>
<path d="M2950 2153 c-1 -643 -30 -873 -138 -1088 -54 -108 -151 -228 -242
-299 l-35 -27 55 27 c241 118 439 355 529 632 43 130 49 197 56 552 3 179 8
373 11 433 l5 107 -120 0 -121 0 0 -337z"/>
</g>
</svg>
